{
	"patcher" : 	{
		"fileversion" : 1,
		"appversion" : 		{
			"major" : 8,
			"minor" : 2,
			"revision" : 1,
			"architecture" : "x64",
			"modernui" : 1
		}
,
		"classnamespace" : "dsp.gen",
		"rect" : [ 672.0, 53.0, 600.0, 484.0 ],
		"bglocked" : 0,
		"openinpresentation" : 0,
		"default_fontsize" : 12.0,
		"default_fontface" : 0,
		"default_fontname" : "Arial",
		"gridonopen" : 1,
		"gridsize" : [ 15.0, 15.0 ],
		"gridsnaponopen" : 1,
		"objectsnaponopen" : 1,
		"statusbarvisible" : 2,
		"toolbarvisible" : 1,
		"lefttoolbarpinned" : 0,
		"toptoolbarpinned" : 0,
		"righttoolbarpinned" : 0,
		"bottomtoolbarpinned" : 0,
		"toolbars_unpinned_last_save" : 2,
		"tallnewobj" : 0,
		"boxanimatetime" : 200,
		"enablehscroll" : 1,
		"enablevscroll" : 1,
		"devicewidth" : 0.0,
		"description" : "",
		"digest" : "",
		"tags" : "",
		"style" : "",
		"subpatcher_template" : "",
		"assistshowspatchername" : 0,
		"boxes" : [ 			{
				"box" : 				{
					"id" : "obj-12",
					"maxclass" : "newobj",
					"numinlets" : 1,
					"numoutlets" : 1,
					"outlettype" : [ "" ],
					"patching_rect" : [ 190.0, 372.0, 51.0, 22.0 ],
					"text" : "clip -1 1"
				}

			}
, 			{
				"box" : 				{
					"code" : "History z1(0);\r\nHistory z2(0);\r\nHistory z3(0);\r\nHistory z4(0);\r\nq = 20.*in1;\r\nfc = in2;\r\nx = in3;\r\nwc = twopi * fc;\r\nt = 1. / samplerate;\r\nwca = (2. / t) * tan(wc * (t / 2.));\r\ng = wca * (t / 2.);\r\n\r\n//if you want a \"q\" control, here it be.\r\n//First is from a csound opcode module\r\n//second is from pirkle himself\r\n//k = 4. * (q - 0.707) / (25. - 0.707);\r\nk = 4.*(q - 0.5)/(25. - 0.5);\r\n\r\n\r\ng2 = pow(g, 2.);\r\ng3 = g2*g;\r\ng4 = pow(g2, 2.);\r\ngp = g / (1. + g);\r\n\r\n\r\n//this filter will be processed completely in codebox\r\n//while I think Max's Gen~ is best for graphically illustrating circuits,\r\n//this filter ends up being more confusing in that form\r\ns = g3*z1 + g2*z2 + g*z3 + z4;\r\nu = (x - (k*s)) / (1. + k * g4);\r\n\r\n//first stage\r\nv = (u - z1) * gp;\r\nlp = v + z1;\r\nz1 = lp + v;\r\n\r\n//second stage\r\nv = (lp - z2) * gp;\r\nlp = v + z2;\r\nz2 = lp + v;\r\n\r\n//third stage\r\nv = (lp - z3) * gp;\r\nlp = v + z3;\r\nz3 = lp + v;\r\n\r\n//fourth stage\r\nv = (lp - z4) * gp;\r\nlp = v + z4;\r\nlp = lp, -1., 1;\r\nz4 = lp + v;\r\n\r\nout1 = lp;\r\n",
					"fontface" : 0,
					"fontname" : "<Monospaced>",
					"fontsize" : 12.0,
					"id" : "obj-10",
					"maxclass" : "codebox",
					"numinlets" : 3,
					"numoutlets" : 1,
					"outlettype" : [ "" ],
					"patching_rect" : [ 195.0, 148.0, 380.0, 203.0 ]
				}

			}
, 			{
				"box" : 				{
					"id" : "obj-9",
					"maxclass" : "newobj",
					"numinlets" : 0,
					"numoutlets" : 1,
					"outlettype" : [ "" ],
					"patching_rect" : [ 379.0, 86.0, 288.0, 22.0 ],
					"text" : "Param cutoff @default 1000. @min 0. @max 22050."
				}

			}
, 			{
				"box" : 				{
					"id" : "obj-7",
					"maxclass" : "newobj",
					"numinlets" : 0,
					"numoutlets" : 1,
					"outlettype" : [ "" ],
					"patching_rect" : [ 195.0, 53.0, 216.0, 22.0 ],
					"text" : "Param r @default 0. @min 0. @max 1."
				}

			}
, 			{
				"box" : 				{
					"id" : "obj-1",
					"maxclass" : "newobj",
					"numinlets" : 0,
					"numoutlets" : 1,
					"outlettype" : [ "" ],
					"patching_rect" : [ 50.0, 14.0, 28.0, 22.0 ],
					"text" : "in 1"
				}

			}
, 			{
				"box" : 				{
					"id" : "obj-4",
					"maxclass" : "newobj",
					"numinlets" : 1,
					"numoutlets" : 0,
					"patching_rect" : [ 176.0, 418.0, 35.0, 22.0 ],
					"text" : "out 1"
				}

			}
 ],
		"lines" : [ 			{
				"patchline" : 				{
					"destination" : [ "obj-10", 2 ],
					"source" : [ "obj-1", 0 ]
				}

			}
, 			{
				"patchline" : 				{
					"destination" : [ "obj-12", 0 ],
					"source" : [ "obj-10", 0 ]
				}

			}
, 			{
				"patchline" : 				{
					"destination" : [ "obj-4", 0 ],
					"source" : [ "obj-12", 0 ]
				}

			}
, 			{
				"patchline" : 				{
					"destination" : [ "obj-10", 0 ],
					"source" : [ "obj-7", 0 ]
				}

			}
, 			{
				"patchline" : 				{
					"destination" : [ "obj-10", 1 ],
					"source" : [ "obj-9", 0 ]
				}

			}
 ]
	}

}
